<svg xmlns="http://www.w3.org/2000/svg" viewBox="0 0 64 64" width="64" height="64">
  <defs>
    <linearGradient id="bg" x1="0" y1="0" x2="1" y2="1">
      <stop offset="0" stop-color="#111d4d"/>
      <stop offset="1" stop-color="#070d24"/>
    </linearGradient>
    <linearGradient id="gold" x1="0" y1="0" x2="1" y2="1">
      <stop offset="0" stop-color="#f4d987"/>
      <stop offset="0.55" stop-color="#d4af37"/>
      <stop offset="1" stop-color="#b8860b"/>
    </linearGradient>
    <radialGradient id="glow" cx="50%" cy="42%" r="55%">
      <stop offset="0" stop-color="#d4af37" stop-opacity="0.35"/>
      <stop offset="1" stop-color="#d4af37" stop-opacity="0"/>
    </radialGradient>
  </defs>

  <rect width="64" height="64" rx="15" fill="url(#bg)"/>
  <rect width="64" height="64" rx="15" fill="url(#glow)"/>
  <rect x="1.5" y="1.5" width="61" height="61" rx="13.5" fill="none" stroke="#d4af37" stroke-opacity="0.5" stroke-width="1.5"/>

  <!-- Main celestial sparkle -->
  <path d="M32 9 L36.2 27.8 L55 32 L36.2 36.2 L32 55 L27.8 36.2 L9 32 L27.8 27.8 Z" fill="url(#gold)"/>

  <!-- Small accent stars -->
  <path d="M48 15 L49.4 19 L53 20.4 L49.4 21.8 L48 25.6 L46.6 21.8 L43 20.4 L46.6 19 Z" fill="#f0d375"/>
  <circle cx="16.5" cy="46" r="1.8" fill="#f0d375"/>
  <circle cx="49" cy="46" r="1.4" fill="#e8c766"/>
</svg>
